<?xml version="1.0" standalone="no"?>
<!DOCTYPE svg PUBLIC "-//W3C//DTD SVG 20010904//EN"
 "http://www.w3.org/TR/2001/REC-SVG-20010904/DTD/svg10.dtd">
<svg version="1.0" xmlns="http://www.w3.org/2000/svg"
 width="299.000000pt" height="299.000000pt" viewBox="0 0 299.000000 299.000000"
 preserveAspectRatio="xMidYMid meet">
<metadata>
Created by potrace 1.11, written by Peter Selinger 2001-2013
</metadata>
<g transform="translate(0.000000,299.000000) scale(0.100000,-0.100000)"
fill="#000000" stroke="none">
<path d="M1465 2856 c-11 -7 -40 -24 -65 -38 -73 -41 -808 -466 -898 -519 -45
-27 -86 -49 -90 -50 -4 0 -32 -17 -62 -37 l-55 -38 -3 -691 -2 -692 32 -24
c18 -13 288 -171 601 -351 427 -247 572 -326 588 -321 22 7 1089 621 1154 664
l40 27 3 686 c2 642 1 687 -15 706 -10 11 -184 115 -388 233 -203 117 -450
259 -548 316 -187 108 -251 143 -264 143 -5 0 -17 -6 -28 -14z m211 -214 c364
-211 831 -481 874 -505 l44 -25 1 -627 c0 -345 -2 -630 -5 -635 -3 -4 -194
-117 -425 -250 -231 -134 -473 -274 -538 -311 -65 -38 -123 -69 -130 -69 -7 0
-21 6 -32 14 -17 11 -737 428 -845 489 -19 11 -76 43 -125 73 l-91 53 1 631 0
630 155 91 c85 50 175 102 200 115 25 14 198 114 385 223 187 110 345 200 351
200 5 1 86 -43 180 -97z"/>
<path d="M1129 2030 c-1 -3 -2 -235 -3 -516 l-1 -510 250 1 c203 2 261 5 309
19 100 29 153 74 192 162 62 140 4 298 -127 350 l-40 17 28 17 c103 64 142
193 89 302 -13 29 -31 60 -38 68 -32 38 -92 68 -169 86 -32 8 -489 12 -490 4z
m484 -131 c99 -26 138 -159 70 -240 -36 -43 -95 -56 -269 -57 l-151 -2 -1 153
c0 83 4 154 8 157 15 9 302 0 343 -11z m7 -430 c94 -20 139 -78 137 -174 -3
-93 -49 -144 -143 -159 -33 -6 -292 -11 -340 -7 -8 1 -11 56 -12 176 l0 175
153 0 c85 0 177 -5 205 -11z"/>
</g>
</svg>
